<svg width="83" height="91" viewBox="0 0 83 91" fill="none" xmlns="http://www.w3.org/2000/svg">
<path d="M3.74902 53.6353V36.8354C3.74902 20.9972 3.74902 13.076 8.67142 8.15775C13.5896 3.23535 21.5108 3.23535 37.349 3.23535H45.749C61.5872 3.23535 69.5084 3.23535 74.4266 8.15775C77.1734 10.9004 78.3872 14.5754 78.9206 20.0354M79.349 36.8354V53.6353C79.349 69.4735 79.349 77.3947 74.4266 82.3129C69.5084 87.2353 61.5872 87.2353 45.749 87.2353H37.349C21.5108 87.2353 13.5896 87.2353 8.67142 82.3129C5.92462 79.5703 4.71082 75.8953 4.17742 70.4353M24.749 53.6353H45.749M24.749 36.8354H28.949M58.349 36.8354H41.549" stroke="#5690E8" stroke-width="6.3" stroke-linecap="round"/>
</svg>
