<svg width="25" height="25" viewBox="0 0 25 25" fill="none" xmlns="http://www.w3.org/2000/svg">
<path d="M1.74306 1.44618C2.00561 1.18363 2.3617 1.03613 2.73301 1.03613H9.13301C9.50431 1.03613 9.86041 1.18363 10.123 1.44618C10.3855 1.70873 10.533 2.06483 10.533 2.43613V8.83613C10.533 9.20744 10.3855 9.56353 10.123 9.82608C9.86041 10.0886 9.50431 10.2361 9.13301 10.2361H2.73301C2.3617 10.2361 2.00561 10.0886 1.74306 9.82608C1.48051 9.56353 1.33301 9.20744 1.33301 8.83613V2.43613C1.33301 2.06483 1.48051 1.70873 1.74306 1.44618ZM14.5431 1.44618C14.8056 1.18363 15.1617 1.03613 15.533 1.03613H21.933C22.3043 1.03613 22.6604 1.18363 22.923 1.44618C23.1855 1.70873 23.333 2.06483 23.333 2.43613V8.83613C23.333 9.20744 23.1855 9.56353 22.923 9.82608C22.6604 10.0886 22.3043 10.2361 21.933 10.2361H15.533C15.1617 10.2361 14.8056 10.0886 14.5431 9.82608C14.2805 9.56353 14.133 9.20744 14.133 8.83613V2.43613C14.133 2.06483 14.2805 1.70873 14.5431 1.44618ZM1.74306 14.2462C2.00561 13.9836 2.3617 13.8361 2.73301 13.8361H9.13301C9.50431 13.8361 9.86041 13.9836 10.123 14.2462C10.3855 14.5087 10.533 14.8648 10.533 15.2361V21.6361C10.533 22.0074 10.3855 22.3635 10.123 22.6261C9.86041 22.8886 9.50431 23.0361 9.13301 23.0361H2.73301C2.3617 23.0361 2.00561 22.8886 1.74306 22.6261C1.48051 22.3635 1.33301 22.0074 1.33301 21.6361V15.2361C1.33301 14.8648 1.48051 14.5087 1.74306 14.2462ZM14.5431 14.2462C14.8056 13.9836 15.1617 13.8361 15.533 13.8361H21.933C22.3043 13.8361 22.6604 13.9836 22.923 14.2462C23.1855 14.5087 23.333 14.8648 23.333 15.2361V21.6361C23.333 22.0074 23.1855 22.3635 22.923 22.6261C22.6604 22.8886 22.3043 23.0361 21.933 23.0361H15.533C15.1617 23.0361 14.8056 22.8886 14.5431 22.6261C14.2805 22.3635 14.133 22.0074 14.133 21.6361V15.2361C14.133 14.8648 14.2805 14.5087 14.5431 14.2462Z" stroke="#5690E8" stroke-width="2"/>
</svg>
