<svg width="24" height="24" viewBox="0 0 24 24" fill="none" xmlns="http://www.w3.org/2000/svg">
<g clip-path="url(#clip0_134_545)">
<path d="M2.39951 0C1.76299 0 1.15254 0.252856 0.702455 0.702944C0.252368 1.15303 -0.000488281 1.76348 -0.000488281 2.4L-0.000488281 8.8C-0.000488281 9.43652 0.252368 10.047 0.702455 10.4971C1.15254 10.9471 1.76299 11.2 2.39951 11.2H8.79951C9.43603 11.2 10.0465 10.9471 10.4966 10.4971C10.9467 10.047 11.1995 9.43652 11.1995 8.8V2.4C11.1995 1.76348 10.9467 1.15303 10.4966 0.702944C10.0465 0.252856 9.43603 0 8.79951 0L2.39951 0ZM15.1995 0C14.563 0 13.9525 0.252856 13.5025 0.702944C13.0524 1.15303 12.7995 1.76348 12.7995 2.4V8.8C12.7995 9.43652 13.0524 10.047 13.5025 10.4971C13.9525 10.9471 14.563 11.2 15.1995 11.2H21.5995C22.236 11.2 22.8465 10.9471 23.2966 10.4971C23.7467 10.047 23.9995 9.43652 23.9995 8.8V2.4C23.9995 1.76348 23.7467 1.15303 23.2966 0.702944C22.8465 0.252856 22.236 0 21.5995 0L15.1995 0ZM2.39951 12.8C1.76299 12.8 1.15254 13.0529 0.702455 13.5029C0.252368 13.953 -0.000488281 14.5635 -0.000488281 15.2L-0.000488281 21.6C-0.000488281 22.2365 0.252368 22.847 0.702455 23.2971C1.15254 23.7471 1.76299 24 2.39951 24H8.79951C9.43603 24 10.0465 23.7471 10.4966 23.2971C10.9467 22.847 11.1995 22.2365 11.1995 21.6V15.2C11.1995 14.5635 10.9467 13.953 10.4966 13.5029C10.0465 13.0529 9.43603 12.8 8.79951 12.8H2.39951ZM15.1995 12.8C14.563 12.8 13.9525 13.0529 13.5025 13.5029C13.0524 13.953 12.7995 14.5635 12.7995 15.2V21.6C12.7995 22.2365 13.0524 22.847 13.5025 23.2971C13.9525 23.7471 14.563 24 15.1995 24H21.5995C22.236 24 22.8465 23.7471 23.2966 23.2971C23.7467 22.847 23.9995 22.2365 23.9995 21.6V15.2C23.9995 14.5635 23.7467 13.953 23.2966 13.5029C22.8465 13.0529 22.236 12.8 21.5995 12.8H15.1995Z" fill="white"/>
</g>
<defs>
<clipPath id="clip0_134_545">
<rect width="24" height="24" fill="white"/>
</clipPath>
</defs>
</svg>
