<svg width="40" height="40" viewBox="0 0 40 40" fill="none" xmlns="http://www.w3.org/2000/svg">
<g clip-path="url(#clip0_135_474)">
<path d="M36.6667 3.74986H31.25V1.24986C31.2502 0.918336 31.1187 0.600306 30.8845 0.36573C30.6502 0.131153 30.3324 -0.000755252 30.0008 -0.000976266C29.6693 -0.00119728 29.3513 0.130287 29.1167 0.364551C28.8821 0.598815 28.7502 0.91667 28.75 1.24819V3.74986H21.25V1.24986C21.2501 1.0857 21.2179 0.923138 21.1552 0.771439C21.0925 0.61974 21.0005 0.48188 20.8845 0.36573C20.7685 0.249579 20.6307 0.157413 20.4791 0.0944932C20.3275 0.0315737 20.165 -0.000866849 20.0008 -0.000976284C19.6693 -0.0011973 19.3513 0.130287 19.1167 0.364551C18.8821 0.598815 18.7502 0.91667 18.75 1.24819V3.74986H11.25V1.24986C11.2501 1.0857 11.2179 0.923138 11.1552 0.771439C11.0925 0.61974 11.0005 0.48188 10.8845 0.36573C10.7685 0.249579 10.6307 0.157413 10.4791 0.0944932C10.3275 0.0315737 10.165 -0.000866849 10.0008 -0.000976284C9.66931 -0.0011973 9.35128 0.130287 9.11671 0.364551C8.88213 0.598815 8.75022 0.91667 8.75 1.24819V3.74986H3.33333C2.44957 3.74986 1.60197 4.10082 0.9769 4.72558C0.351826 5.35034 0.000441883 6.19776 0 7.08152V36.6649C0 37.5489 0.35119 38.3968 0.976311 39.0219C1.60143 39.647 2.44928 39.9982 3.33333 39.9982H36.6667C37.5507 39.9982 38.3986 39.647 39.0237 39.0219C39.6488 38.3968 40 37.5489 40 36.6649V7.08152C39.9996 6.19776 39.6482 5.35034 39.0231 4.72558C38.398 4.10082 37.5504 3.74986 36.6667 3.74986ZM37.5 36.6665C37.5 36.8872 37.4124 37.099 37.2565 37.2552C37.1006 37.4114 36.8891 37.4994 36.6683 37.4999H3.33333C3.11232 37.4999 2.90036 37.4121 2.74408 37.2558C2.5878 37.0995 2.5 36.8875 2.5 36.6665V7.08319C2.50044 6.86247 2.58843 6.65093 2.74467 6.49501C2.9009 6.33909 3.11261 6.25152 3.33333 6.25152H8.75V8.75152C8.74978 9.08305 8.88126 9.40108 9.11553 9.63565C9.34979 9.87023 9.66765 10.0021 9.99917 10.0024C10.3307 10.0026 10.6487 9.87109 10.8833 9.63683C11.1179 9.40257 11.2498 9.08471 11.25 8.75319V6.25152H18.75V8.75152C18.7498 9.08305 18.8813 9.40108 19.1155 9.63565C19.3498 9.87023 19.6676 10.0021 19.9992 10.0024C20.3307 10.0026 20.6487 9.87109 20.8833 9.63683C21.1179 9.40257 21.2498 9.08471 21.25 8.75319V6.25152H28.75V8.75152C28.7498 9.08305 28.8813 9.40108 29.1155 9.63565C29.3498 9.87023 29.6676 10.0021 29.9992 10.0024C30.3307 10.0026 30.6487 9.87109 30.8833 9.63683C31.1179 9.40257 31.2498 9.08471 31.25 8.75319V6.25152H36.6667C36.8871 6.25196 37.0984 6.33973 37.2543 6.4956C37.4101 6.65147 37.4979 6.86275 37.4983 7.08319L37.5 36.6665Z" fill="#515151"/>
<path d="M8.75 14.9995H13.75V18.7495H8.75V14.9995ZM8.75 21.2495H13.75V24.9995H8.75V21.2495ZM8.75 27.4995H13.75V31.2495H8.75V27.4995ZM17.5 27.4995H22.5V31.2495H17.5V27.4995ZM17.5 21.2495H22.5V24.9995H17.5V21.2495ZM17.5 14.9995H22.5V18.7495H17.5V14.9995ZM26.25 27.4995H31.25V31.2495H26.25V27.4995ZM26.25 21.2495H31.25V24.9995H26.25V21.2495ZM26.25 14.9995H31.25V18.7495H26.25V14.9995Z" fill="#515151"/>
</g>
<defs>
<clipPath id="clip0_135_474">
<rect width="40" height="40" fill="white"/>
</clipPath>
</defs>
</svg>
