<svg width="28" height="28" viewBox="0 0 28 28" fill="none" xmlns="http://www.w3.org/2000/svg">
<g id="devicon:google" clip-path="url(#clip0_60_30)">
<path id="Vector" d="M10.3565 1.72047C7.6669 2.65354 5.34736 4.42455 3.73861 6.77336C2.12987 9.12217 1.31673 11.925 1.41863 14.7701C1.52052 17.6152 2.53208 20.3526 4.30473 22.5803C6.07737 24.808 8.51767 26.4086 11.2672 27.1468C13.4963 27.722 15.8317 27.7473 18.0727 27.2204C20.1028 26.7644 21.9797 25.789 23.5196 24.3897C25.1223 22.8888 26.2856 20.9795 26.8845 18.867C27.5352 16.5697 27.651 14.1538 27.2231 11.8048H14.7057V16.9973H21.9549C21.81 17.8255 21.4996 18.6159 21.0421 19.3213C20.5846 20.0267 19.9895 20.6325 19.2924 21.1026C18.4073 21.6883 17.4094 22.0824 16.3629 22.2593C15.3133 22.4545 14.2368 22.4545 13.1873 22.2593C12.1234 22.0396 11.1171 21.6005 10.2325 20.9701C8.81111 19.9639 7.74386 18.5345 7.18303 16.8859C6.61286 15.2063 6.61286 13.3855 7.18303 11.7059C7.58224 10.5287 8.2422 9.45676 9.11364 8.57024C10.1109 7.53709 11.3734 6.79859 12.7628 6.43576C14.1521 6.07293 15.6145 6.0998 16.9896 6.51341C18.0638 6.84302 19.0462 7.41917 19.8582 8.19589C20.6756 7.38269 21.4916 6.56739 22.3061 5.74999C22.7267 5.31045 23.1852 4.89193 23.5995 4.44187C22.3598 3.28836 20.9048 2.39073 19.3177 1.80039C16.4275 0.750923 13.265 0.722719 10.3565 1.72047Z" fill="white"/>
<path id="Vector_2" d="M10.3565 1.72027C13.2647 0.721843 16.4272 0.749304 19.3176 1.79808C20.905 2.39244 22.3594 3.29439 23.5974 4.45219C23.1768 4.90225 22.733 5.32287 22.304 5.76031C21.488 6.5749 20.6727 7.3867 19.8581 8.19569C19.0461 7.41897 18.0638 6.84282 16.9895 6.51321C15.6149 6.09815 14.1526 6.06973 12.7629 6.43107C11.3732 6.79241 10.1098 7.52956 9.11148 8.56163C8.24004 9.44815 7.58009 10.5201 7.18087 11.6973L2.82123 8.32187C4.38172 5.2273 7.0836 2.8602 10.3565 1.72027Z" fill="#FA2F2F"/>
<path id="Vector_3" d="M1.66454 11.6659C1.89869 10.5045 2.28773 9.37986 2.82122 8.32202L7.18086 11.7059C6.6107 13.3855 6.6107 15.2062 7.18086 16.8858C5.72835 18.0075 4.27514 19.1347 2.82122 20.2676C1.48609 17.6099 1.0789 14.5819 1.66454 11.6659Z" fill="#F8BD00"/>
<path id="Vector_4" d="M14.7056 11.8027H27.223C27.651 14.1518 27.5352 16.5676 26.8845 18.8649C26.2856 20.9774 25.1223 22.8868 23.5196 24.3876C22.1126 23.2898 20.6994 22.2004 19.2924 21.1026C19.9899 20.6321 20.5853 20.0256 21.0428 19.3195C21.5003 18.6133 21.8105 17.8221 21.9549 16.9932H14.7056C14.7035 15.2644 14.7056 13.5336 14.7056 11.8027Z" fill="#5690E8"/>
<path id="Vector_5" d="M2.81952 20.2675C4.27344 19.1459 5.72665 18.0186 7.17916 16.8857C7.74112 18.535 8.80989 19.9644 10.2328 20.9699C11.1202 21.5974 12.1287 22.0329 13.1939 22.2486C14.2435 22.4438 15.32 22.4438 16.3695 22.2486C17.4161 22.0717 18.414 21.6777 19.2991 21.0919C20.7061 22.1897 22.1193 23.2791 23.5263 24.377C21.9866 25.777 20.1097 26.7532 18.0793 27.2098C15.8383 27.7367 13.5029 27.7114 11.2738 27.1362C9.51083 26.6655 7.86408 25.8356 6.43678 24.6987C4.92621 23.4992 3.69236 21.9877 2.81952 20.2675Z" fill="#319F43"/>
</g>
<defs>
<clipPath id="clip0_60_30">
<rect width="26.9192" height="26.9196" fill="white" transform="translate(0.979401 0.834961)"/>
</clipPath>
</defs>
</svg>
