<svg width="24" height="22" viewBox="0 0 24 22" fill="none" xmlns="http://www.w3.org/2000/svg">
<path d="M11.1998 4.5999H23.9998ZM11.1998 17.3999H23.9998ZM2.3998 1.3999H5.5998C6.02415 1.3999 6.43112 1.56847 6.73118 1.86853C7.03123 2.16859 7.1998 2.57556 7.1998 2.9999V6.1999C7.1998 6.62425 7.03123 7.03121 6.73118 7.33127C6.43112 7.63133 6.02415 7.7999 5.5998 7.7999H2.3998C1.97546 7.7999 1.56849 7.63133 1.26843 7.33127C0.968376 7.03121 0.799805 6.62425 0.799805 6.1999V2.9999C0.799805 2.57556 0.968376 2.16859 1.26843 1.86853C1.56849 1.56847 1.97546 1.3999 2.3998 1.3999ZM2.3998 14.1999H5.5998C6.02415 14.1999 6.43112 14.3685 6.73118 14.6685C7.03123 14.9686 7.1998 15.3756 7.1998 15.7999V18.9999C7.1998 19.4242 7.03123 19.8312 6.73118 20.1313C6.43112 20.4313 6.02415 20.5999 5.5998 20.5999H2.3998C1.97546 20.5999 1.56849 20.4313 1.26843 20.1313C0.968376 19.8312 0.799805 19.4242 0.799805 18.9999V15.7999C0.799805 15.3756 0.968376 14.9686 1.26843 14.6685C1.56849 14.3685 1.97546 14.1999 2.3998 14.1999Z" fill="white"/>
<path d="M11.1998 4.5999H23.9998M11.1998 17.3999H23.9998M2.3998 1.3999H5.5998C6.02415 1.3999 6.43112 1.56847 6.73118 1.86853C7.03123 2.16859 7.1998 2.57556 7.1998 2.9999V6.1999C7.1998 6.62425 7.03123 7.03121 6.73118 7.33127C6.43112 7.63133 6.02415 7.7999 5.5998 7.7999H2.3998C1.97546 7.7999 1.56849 7.63133 1.26843 7.33127C0.968376 7.03121 0.799805 6.62425 0.799805 6.1999V2.9999C0.799805 2.57556 0.968376 2.16859 1.26843 1.86853C1.56849 1.56847 1.97546 1.3999 2.3998 1.3999ZM2.3998 14.1999H5.5998C6.02415 14.1999 6.43112 14.3685 6.73118 14.6685C7.03123 14.9686 7.1998 15.3756 7.1998 15.7999V18.9999C7.1998 19.4242 7.03123 19.8312 6.73118 20.1313C6.43112 20.4313 6.02415 20.5999 5.5998 20.5999H2.3998C1.97546 20.5999 1.56849 20.4313 1.26843 20.1313C0.968376 19.8312 0.799805 19.4242 0.799805 18.9999V15.7999C0.799805 15.3756 0.968376 14.9686 1.26843 14.6685C1.56849 14.3685 1.97546 14.1999 2.3998 14.1999Z" stroke="white" stroke-width="1.6"/>
</svg>
