<svg width="24" height="24" viewBox="0 0 24 24" fill="none" xmlns="http://www.w3.org/2000/svg">
<path d="M11.1998 5.5999H23.9998M11.1998 18.3999H23.9998M2.3998 2.3999H5.5998C6.02415 2.3999 6.43112 2.56847 6.73118 2.86853C7.03123 3.16859 7.1998 3.57556 7.1998 3.9999V7.1999C7.1998 7.62425 7.03123 8.03121 6.73118 8.33127C6.43112 8.63133 6.02415 8.7999 5.5998 8.7999H2.3998C1.97546 8.7999 1.56849 8.63133 1.26843 8.33127C0.968376 8.03121 0.799805 7.62425 0.799805 7.1999V3.9999C0.799805 3.57556 0.968376 3.16859 1.26843 2.86853C1.56849 2.56847 1.97546 2.3999 2.3998 2.3999ZM2.3998 15.1999H5.5998C6.02415 15.1999 6.43112 15.3685 6.73118 15.6685C7.03123 15.9686 7.1998 16.3756 7.1998 16.7999V19.9999C7.1998 20.4242 7.03123 20.8312 6.73118 21.1313C6.43112 21.4313 6.02415 21.5999 5.5998 21.5999H2.3998C1.97546 21.5999 1.56849 21.4313 1.26843 21.1313C0.968376 20.8312 0.799805 20.4242 0.799805 19.9999V16.7999C0.799805 16.3756 0.968376 15.9686 1.26843 15.6685C1.56849 15.3685 1.97546 15.1999 2.3998 15.1999Z" stroke="#5690E8" stroke-width="1.6"/>
</svg>
