<svg width="39" height="50" viewBox="0 0 39 50" fill="none" xmlns="http://www.w3.org/2000/svg">
<path d="M38.1514 13.0063C38.4736 13.3286 38.6562 13.7637 38.6562 14.2202V47.3438C38.6562 48.2944 37.8882 49.0625 36.9375 49.0625H2.5625C1.61182 49.0625 0.84375 48.2944 0.84375 47.3438V2.65625C0.84375 1.70557 1.61182 0.9375 2.5625 0.9375H25.3735C25.8301 0.9375 26.2705 1.12012 26.5928 1.44238L38.1514 13.0063ZM34.6924 15.0098L24.584 4.90137V15.0098H34.6924ZM26.2608 31.7278C25.4455 31.701 24.5786 31.7638 23.5941 31.8868C22.2889 31.0817 21.4102 29.9758 20.7861 28.351L20.8436 28.1158L20.9102 27.8375C21.1411 26.8638 21.2652 26.1532 21.3022 25.4367C21.3302 24.8958 21.3001 24.3968 21.204 23.9344C21.0267 22.9359 20.3204 22.3521 19.4304 22.3161C18.6006 22.2822 17.8379 22.7458 17.6429 23.4639C17.3255 24.6251 17.5113 26.1532 18.1843 28.7592C17.3271 30.8029 16.1943 33.199 15.4343 34.5353C14.4197 35.0584 13.6296 35.5343 12.9658 36.0618C12.0903 36.7584 11.5435 37.4744 11.3931 38.2263C11.3201 38.5749 11.4302 39.0304 11.681 39.4037C11.9657 39.8269 12.3943 40.1019 12.9083 40.1416C14.2054 40.2421 15.7996 38.9047 17.5597 35.8845C17.7364 35.8254 17.9233 35.7631 18.1516 35.6858L18.7907 35.4699C19.1952 35.3334 19.4884 35.2357 19.7785 35.1417C21.0353 34.7324 21.986 34.4741 22.8507 34.3269C24.3536 35.1315 26.0906 35.6589 27.2604 35.6589C28.2261 35.6589 28.8787 35.1584 29.1145 34.3704C29.3213 33.6786 29.1575 32.8762 28.7127 32.4325C28.253 31.9808 27.4076 31.7649 26.2608 31.7278ZM12.9411 38.6254V38.6061L12.948 38.5878C13.0266 38.3846 13.1275 38.1908 13.2488 38.0099C13.4787 37.6564 13.7951 37.2848 14.1872 36.8889C14.3977 36.6768 14.6168 36.47 14.8741 36.2379C14.9316 36.1864 15.299 35.8593 15.3677 35.7948L15.9677 35.2362L15.5315 35.9307C14.8698 36.9856 14.2715 37.7451 13.7591 38.2403C13.5706 38.4229 13.4046 38.5572 13.2703 38.6437C13.226 38.6733 13.1791 38.6988 13.1301 38.7199C13.1081 38.7291 13.0888 38.7344 13.0694 38.736C13.049 38.7386 13.0283 38.7359 13.0093 38.728C12.9891 38.7195 12.9718 38.7052 12.9597 38.687C12.9475 38.6687 12.9411 38.6473 12.9411 38.6254ZM19.7054 26.9014L19.584 27.1162L19.5088 26.881C19.3423 26.353 19.2199 25.5575 19.186 24.8399C19.1474 24.0235 19.2124 23.5337 19.4702 23.5337C19.8322 23.5337 19.9981 24.1138 20.011 24.9866C20.0229 25.7536 19.902 26.5517 19.7049 26.9014H19.7054ZM19.3934 30.0413L19.4755 29.8238L19.5878 30.0279C20.2157 31.1687 21.0305 32.1205 21.9264 32.7838L22.1197 32.9267L21.8839 32.975C21.0068 33.1565 20.1899 33.4294 19.0727 33.88C19.1893 33.8328 17.9115 34.3559 17.5881 34.48L17.3062 34.5879L17.4565 34.3258C18.1199 33.171 18.7327 31.7842 19.3928 30.0413H19.3934ZM27.8593 34.1373C27.4371 34.3038 26.5283 34.155 24.9283 33.4718L24.5222 33.2989L24.9626 33.2666C26.2141 33.1737 27.1003 33.2425 27.617 33.4315C27.8373 33.5121 27.9839 33.6136 28.0489 33.7296C28.0831 33.7846 28.0946 33.8506 28.0809 33.9139C28.0673 33.9771 28.0296 34.0326 27.9758 34.0686C27.9417 34.0986 27.9021 34.122 27.8593 34.1373Z" fill="white"/>
</svg>
