<svg width="34" height="34" viewBox="0 0 34 34" fill="none" xmlns="http://www.w3.org/2000/svg">
<path d="M32 32L22 22M2 13.6667C2 15.1988 2.30177 16.7158 2.88807 18.1313C3.47438 19.5468 4.33374 20.8329 5.41709 21.9162C6.50044 22.9996 7.78656 23.859 9.20203 24.4453C10.6175 25.0316 12.1346 25.3333 13.6667 25.3333C15.1988 25.3333 16.7158 25.0316 18.1313 24.4453C19.5468 23.859 20.8329 22.9996 21.9162 21.9162C22.9996 20.8329 23.859 19.5468 24.4453 18.1313C25.0316 16.7158 25.3333 15.1988 25.3333 13.6667C25.3333 12.1346 25.0316 10.6175 24.4453 9.20203C23.859 7.78656 22.9996 6.50044 21.9162 5.41709C20.8329 4.33374 19.5468 3.47438 18.1313 2.88807C16.7158 2.30177 15.1988 2 13.6667 2C12.1346 2 10.6175 2.30177 9.20203 2.88807C7.78656 3.47438 6.50044 4.33374 5.41709 5.41709C4.33374 6.50044 3.47438 7.78656 2.88807 9.20203C2.30177 10.6175 2 12.1346 2 13.6667Z" stroke="white" stroke-width="2.5" stroke-linecap="round" stroke-linejoin="round"/>
</svg>
